<?xml version="1.0" standalone="no"?><!DOCTYPE svg PUBLIC "-//W3C//DTD SVG 1.1//EN" "http://www.w3.org/Graphics/SVG/1.1/DTD/svg11.dtd"><svg t="1713360308226" class="icon" viewBox="0 0 1024 1024" version="1.1" xmlns="http://www.w3.org/2000/svg" p-id="3286" xmlns:xlink="http://www.w3.org/1999/xlink" width="256" height="256"><path d="M934.01947614 198.72173868c-54.37060741-54.37060741-124.27567408-85.43952592-201.94797037-85.43952593-75.08322016 0-147.57736297 31.06891852-201.94797038 85.43952593l-18.12353539 20.71261154-20.71261275-20.71261154c-54.37060741-54.37060741-124.27567408-85.43952592-201.94797036-85.43952593-75.08322016 0-147.57736297 31.06891852-201.94797038 85.43952593-111.33029095 111.33029095-111.33029095 295.15472592 0 409.07409301l393.53963497 401.30686461c7.76722963 7.76722963 18.12353539 10.35630577 28.47984238 10.35630576s20.71261275-5.17815349 28.47984116-10.35630576l393.53963498-401.30686461c54.37060741-54.37060741 82.85044978-126.86475022 82.85044978-204.53704651s-25.89076502-150.1664391-80.26137364-204.5370465z m-54.37060741 352.11440947L512 926.25224651 144.35113127 550.83614815c-80.26137244-82.85044978-80.26137244-217.48242963 0-300.33287942 38.83614815-38.83614815 90.61767941-62.13783703 144.98828562-62.13783704 54.37060741 0 106.15213868 20.71261275 144.98828681 62.13783704l46.60337778 49.19245513c15.53445925 15.53445925 41.42522429 15.53445925 54.37060741 0l46.60337778-49.19245513c38.83614815-38.83614815 90.61767941-62.13783703 144.98828682-62.13783704 54.37060741 0 106.15213868 20.71261275 144.98828561 62.13783704 38.83614815 38.83614815 59.5487609 93.20675555 59.5487609 150.16644032s-15.53445925 111.33029095-51.78153127 150.1664391z" fill="#000000" p-id="3287"></path></svg>